<svg preserveAspectRatio="xMidYMid meet" width="72.9587" height="18.42" overflow="visible" style="display: block;" viewBox="0 0 72.9587 18.42" fill="none" xmlns="http://www.w3.org/2000/svg">
<g id="Title">
<path d="M3.56 14.62C3.37333 14.62 3.22667 14.5733 3.12 14.48C3.02667 14.3867 2.95333 14.2667 2.9 14.12L0.04 4.86C0.0133333 4.79333 0 4.72667 0 4.66C0 4.54 0.04 4.44 0.12 4.36C0.213333 4.26667 0.32 4.22 0.44 4.22H2.2C2.37333 4.22 2.50667 4.26667 2.6 4.36C2.69333 4.45333 2.75333 4.54 2.78 4.62L4.6 10.8L6.54 4.66C6.56667 4.56667 6.62667 4.47333 6.72 4.38C6.82667 4.27333 6.97333 4.22 7.16 4.22H8.3C8.48667 4.22 8.62667 4.27333 8.72 4.38C8.82667 4.47333 8.89333 4.56667 8.92 4.66L10.86 10.8L12.68 4.62C12.6933 4.54 12.7467 4.45333 12.84 4.36C12.9467 4.26667 13.08 4.22 13.24 4.22H15C15.12 4.22 15.22 4.26667 15.3 4.36C15.3933 4.44 15.44 4.54 15.44 4.66C15.44 4.72667 15.4333 4.79333 15.42 4.86L12.54 14.12C12.5 14.2667 12.4267 14.3867 12.32 14.48C12.2267 14.5733 12.0867 14.62 11.9 14.62H10.36C10.1733 14.62 10.0267 14.5733 9.92 14.48C9.81333 14.3867 9.73333 14.2667 9.68 14.12L7.74 8.2L5.76 14.12C5.72 14.2667 5.64667 14.3867 5.54 14.48C5.43333 14.5733 5.28667 14.62 5.1 14.62H3.56Z" fill="var(--fill-0, white)"/>
<path d="M21.1086 14.82C20.2819 14.82 19.5686 14.7267 18.9686 14.54C18.3819 14.34 17.9019 14.1 17.5286 13.82C17.1686 13.54 16.8953 13.26 16.7086 12.98C16.5353 12.6867 16.4419 12.44 16.4286 12.24C16.4153 12.0933 16.4619 11.9733 16.5686 11.88C16.6753 11.7867 16.7819 11.74 16.8886 11.74H18.8286C18.8686 11.74 18.9086 11.7467 18.9486 11.76C18.9886 11.7733 19.0286 11.8067 19.0686 11.86C19.2419 11.98 19.4219 12.12 19.6086 12.28C19.7953 12.4267 20.0086 12.5533 20.2486 12.66C20.5019 12.7667 20.8153 12.82 21.1886 12.82C21.6286 12.82 22.0019 12.7333 22.3086 12.56C22.6153 12.3733 22.7686 12.1133 22.7686 11.78C22.7686 11.54 22.6953 11.34 22.5486 11.18C22.4153 11.02 22.1553 10.8733 21.7686 10.74C21.3819 10.6067 20.8086 10.46 20.0486 10.3C19.3286 10.14 18.7153 9.92667 18.2086 9.66C17.7019 9.39333 17.3219 9.06 17.0686 8.66C16.8153 8.24667 16.6886 7.75333 16.6886 7.18C16.6886 6.66 16.8486 6.16 17.1686 5.68C17.5019 5.2 17.9886 4.80667 18.6286 4.5C19.2686 4.18 20.0686 4.02 21.0286 4.02C21.7619 4.02 22.4019 4.11333 22.9486 4.3C23.5086 4.47333 23.9753 4.7 24.3486 4.98C24.7219 5.24667 25.0019 5.52667 25.1886 5.82C25.3886 6.1 25.4953 6.34667 25.5086 6.56C25.5219 6.69333 25.4819 6.80667 25.3886 6.9C25.2953 6.99333 25.1886 7.04 25.0686 7.04H23.2886C23.2219 7.04 23.1619 7.03333 23.1086 7.02C23.0553 6.99333 23.0086 6.96 22.9686 6.92C22.8086 6.81333 22.6419 6.69333 22.4686 6.56C22.3086 6.41333 22.1153 6.28667 21.8886 6.18C21.6619 6.07333 21.3686 6.02 21.0086 6.02C20.5686 6.02 20.2286 6.12 19.9886 6.32C19.7619 6.50667 19.6486 6.74667 19.6486 7.04C19.6486 7.22667 19.7086 7.4 19.8286 7.56C19.9486 7.72 20.1953 7.86667 20.5686 8C20.9419 8.13333 21.5086 8.27333 22.2686 8.42C23.1753 8.58 23.8953 8.82 24.4286 9.14C24.9619 9.46 25.3419 9.83333 25.5686 10.26C25.8086 10.6733 25.9286 11.12 25.9286 11.6C25.9286 12.2267 25.7419 12.7867 25.3686 13.28C24.9953 13.76 24.4486 14.14 23.7286 14.42C23.0219 14.6867 22.1486 14.82 21.1086 14.82Z" fill="var(--fill-0, white)"/>
<path d="M31.6684 14.82C30.8951 14.82 30.2084 14.6467 29.6084 14.3C29.0218 13.94 28.5618 13.4267 28.2284 12.76C27.9084 12.08 27.7484 11.26 27.7484 10.3V4.72C27.7484 4.57333 27.7951 4.45333 27.8884 4.36C27.9818 4.26667 28.0951 4.22 28.2284 4.22H30.3484C30.4951 4.22 30.6151 4.26667 30.7084 4.36C30.8018 4.45333 30.8484 4.57333 30.8484 4.72V10.18C30.8484 11.6733 31.5018 12.42 32.8084 12.42C33.4351 12.42 33.9284 12.2267 34.2884 11.84C34.6618 11.44 34.8484 10.8867 34.8484 10.18V4.72C34.8484 4.57333 34.8951 4.45333 34.9884 4.36C35.0818 4.26667 35.2018 4.22 35.3484 4.22H37.4684C37.6018 4.22 37.7151 4.26667 37.8084 4.36C37.9018 4.45333 37.9484 4.57333 37.9484 4.72V14.12C37.9484 14.2667 37.9018 14.3867 37.8084 14.48C37.7151 14.5733 37.6018 14.62 37.4684 14.62H35.5084C35.3618 14.62 35.2418 14.5733 35.1484 14.48C35.0551 14.3867 35.0084 14.2667 35.0084 14.12V13.34C34.6618 13.82 34.2151 14.1867 33.6684 14.44C33.1218 14.6933 32.4551 14.82 31.6684 14.82Z" fill="var(--fill-0, white)"/>
<path d="M40.9656 18.42C40.819 18.42 40.699 18.3733 40.6056 18.28C40.5123 18.1867 40.4656 18.0667 40.4656 17.92V4.72C40.4656 4.57333 40.5123 4.45333 40.6056 4.36C40.699 4.26667 40.819 4.22 40.9656 4.22H42.8656C43.0123 4.22 43.1323 4.26667 43.2256 4.36C43.319 4.45333 43.3656 4.57333 43.3656 4.72V5.48C43.6856 5.05333 44.099 4.70667 44.6056 4.44C45.1123 4.16 45.7456 4.02 46.5056 4.02C47.199 4.02 47.799 4.13333 48.3056 4.36C48.8256 4.57333 49.259 4.88667 49.6056 5.3C49.9656 5.7 50.239 6.18667 50.4256 6.76C50.6256 7.33333 50.739 7.98 50.7656 8.7C50.779 8.95333 50.7856 9.19333 50.7856 9.42C50.7856 9.64667 50.779 9.89333 50.7656 10.16C50.7523 10.84 50.6456 11.4667 50.4456 12.04C50.259 12.6133 49.9856 13.1067 49.6256 13.52C49.2656 13.9333 48.8256 14.2533 48.3056 14.48C47.799 14.7067 47.199 14.82 46.5056 14.82C45.8256 14.82 45.2323 14.7 44.7256 14.46C44.2323 14.2067 43.8256 13.8667 43.5056 13.44V17.92C43.5056 18.0667 43.459 18.1867 43.3656 18.28C43.2723 18.3733 43.159 18.42 43.0256 18.42H40.9656ZM45.6056 12.42C46.1123 12.42 46.5123 12.3133 46.8056 12.1C47.099 11.8733 47.3056 11.58 47.4256 11.22C47.559 10.86 47.639 10.4667 47.6656 10.04C47.6923 9.62667 47.6923 9.21333 47.6656 8.8C47.639 8.37333 47.559 7.98 47.4256 7.62C47.3056 7.26 47.099 6.97333 46.8056 6.76C46.5123 6.53333 46.1123 6.42 45.6056 6.42C45.1123 6.42 44.7123 6.53333 44.4056 6.76C44.099 6.98667 43.879 7.27333 43.7456 7.62C43.6123 7.96667 43.5323 8.34 43.5056 8.74C43.4923 8.98 43.4856 9.22667 43.4856 9.48C43.4856 9.73333 43.4923 9.98667 43.5056 10.24C43.519 10.6133 43.599 10.9667 43.7456 11.3C43.9056 11.62 44.1323 11.8867 44.4256 12.1C44.7323 12.3133 45.1256 12.42 45.6056 12.42Z" fill="var(--fill-0, white)"/>
<path d="M53.1698 14.62C53.0232 14.62 52.9032 14.5733 52.8098 14.48C52.7165 14.3867 52.6698 14.2667 52.6698 14.12V11.88C52.6698 11.7333 52.7165 11.6133 52.8098 11.52C52.9032 11.4267 53.0232 11.38 53.1698 11.38H55.4098C55.5565 11.38 55.6765 11.4267 55.7698 11.52C55.8632 11.6133 55.9098 11.7333 55.9098 11.88V14.12C55.9098 14.2667 55.8632 14.3867 55.7698 14.48C55.6765 14.5733 55.5565 14.62 55.4098 14.62H53.1698Z" fill="var(--fill-0, white)"/>
<path d="M61.3772 14.82C60.6705 14.82 60.0372 14.6867 59.4772 14.42C58.9172 14.14 58.4705 13.7667 58.1372 13.3C57.8039 12.8333 57.6372 12.3133 57.6372 11.74C57.6372 10.7933 58.0172 10.0467 58.7772 9.5C59.5505 8.95333 60.5639 8.58 61.8172 8.38L64.4372 8V7.64C64.4372 7.12 64.3172 6.72 64.0772 6.44C63.8372 6.16 63.4172 6.02 62.8172 6.02C62.3772 6.02 62.0239 6.10667 61.7572 6.28C61.4905 6.45333 61.2839 6.68 61.1372 6.96C61.0305 7.13333 60.8772 7.22 60.6772 7.22H58.7772C58.6305 7.22 58.5172 7.18 58.4372 7.1C58.3572 7.00667 58.3239 6.9 58.3372 6.78C58.3372 6.55333 58.4239 6.28667 58.5972 5.98C58.7705 5.67333 59.0372 5.37333 59.3972 5.08C59.7572 4.77333 60.2172 4.52 60.7772 4.32C61.3372 4.12 62.0239 4.02 62.8372 4.02C63.6772 4.02 64.3972 4.12 64.9972 4.32C65.5972 4.52 66.0772 4.8 66.4372 5.16C66.7972 5.52 67.0639 5.94 67.2372 6.42C67.4105 6.88667 67.4972 7.39333 67.4972 7.94V14.12C67.4972 14.2667 67.4505 14.3867 67.3572 14.48C67.2639 14.5733 67.1439 14.62 66.9972 14.62H65.0372C64.9039 14.62 64.7905 14.5733 64.6972 14.48C64.6039 14.3867 64.5572 14.2667 64.5572 14.12V13.38C64.3839 13.6333 64.1505 13.8733 63.8572 14.1C63.5639 14.3133 63.2105 14.4867 62.7972 14.62C62.3972 14.7533 61.9239 14.82 61.3772 14.82ZM62.1772 12.74C62.6172 12.74 63.0105 12.6467 63.3572 12.46C63.7039 12.2733 63.9772 11.9867 64.1772 11.6C64.3772 11.2133 64.4772 10.7267 64.4772 10.14V9.8L62.6172 10.1C61.8972 10.22 61.3705 10.4 61.0372 10.64C60.7039 10.88 60.5372 11.1733 60.5372 11.52C60.5372 11.7733 60.6105 11.9933 60.7572 12.18C60.9172 12.3667 61.1239 12.5067 61.3772 12.6C61.6305 12.6933 61.8972 12.74 62.1772 12.74Z" fill="var(--fill-0, white)"/>
<path d="M70.3988 14.62C70.2654 14.62 70.1521 14.5733 70.0587 14.48C69.9654 14.3867 69.9187 14.2667 69.9187 14.12V4.72C69.9187 4.57333 69.9654 4.45333 70.0587 4.36C70.1521 4.26667 70.2654 4.22 70.3988 4.22H72.3988C72.5454 4.22 72.6654 4.26667 72.7588 4.36C72.8521 4.45333 72.8988 4.57333 72.8988 4.72V14.12C72.8988 14.2667 72.8521 14.3867 72.7588 14.48C72.6654 14.5733 72.5454 14.62 72.3988 14.62H70.3988ZM70.3388 2.62C70.2054 2.62 70.0921 2.57333 69.9987 2.48C69.9054 2.38667 69.8587 2.26667 69.8587 2.12V0.519999C69.8587 0.373333 69.9054 0.253333 69.9987 0.159999C70.0921 0.053333 70.2054 0 70.3388 0H72.4388C72.5854 0 72.7054 0.053333 72.7988 0.159999C72.9054 0.253333 72.9587 0.373333 72.9587 0.519999V2.12C72.9587 2.26667 72.9054 2.38667 72.7988 2.48C72.7054 2.57333 72.5854 2.62 72.4388 2.62H70.3388Z" fill="var(--fill-0, white)"/>
</g>
</svg>
